<?xml version="1.0" encoding="UTF-8" standalone="no"?>
<svg xmlns="http://www.w3.org/2000/svg" width="5in" height="5in" viewBox="0 0 300 300" version="1.1">
	<rect X="0" y="0" width="300" height="300" fill="#ffffff"/>
	<g id="sushi" transform="scale(0.9) translate(0, 150)">
		<!-- Nori -->
		<path fill="#000000" d="M 25 25 v 25 a 25 12.5 0 0 0 50 0 v -25 a 25 12.5 0 0 1 -50 0"/>
		<!-- Rice -->
		<ellipse fill="#ffffff" stroke="#000000" stroke-width="2" cx="50" cy="25" rx="24" ry="12"/>
		<!-- Filling -->
		<ellipse fill="#000000" cx="48" cy="20" rx="6" ry="4"/>
		<ellipse fill="#000000" cx="53" cy="22" rx="6" ry="4"/>
		<ellipse fill="#000000" cx="50" cy="25" rx="8" ry="6"/>
	</g>
	<g id="burger" transform="translate(150, 65)">
		<!-- Top Bun, Outline -->
		<ellipse fill="#000000" cx="60" cy="25" rx="20" ry="7.5"/>
		<rect fill="#000000" x="40" y="25" width="40" height="7.5"/>
		<!-- Top Bun, Hollow -->
		<ellipse fill="#ffffff" cx="60" cy="25" rx="18" ry="5.5"/>
		<rect fill="#ffffff" x="42" y="25" width="36" height="5.5"/>
		<!-- Patty -->
		<rect fill="#000000" x="40" y="35" width="40" height="7.5"/>
		<!-- Bottom Bun, Outline -->
		<rect fill="#000000" x="40" y="45" width="40" height="7.5" rx="5" ry="5"/>
		<rect fill="#000000" x="40" y="45" width="40" height="5"/>
		<!-- Bottom Bun, Hollow -->
		<rect fill="#ffffff" x="42" y="47" width="36" height="3.5" rx="5" ry="5"/>
		<rect fill="#ffffff" x="42" y="47" width="36" height="1"/>
	</g>
	<g id="pizza" transform="translate(160, 220)">
		<!-- Crust -->
		<path fill="#ffffff" stroke="#000000" stroke-width="2" d="M 40 15 l 20 40 l 20 -40 c 0 -5 -40 -5 -40 0"/>
		<path fill="#ffffff" stroke="#000000" stroke-width="2" d="M 42.5 20 c 0 -5 35 -5 35 0"/>
		<!-- Pepperoni -->
		<ellipse fill="#000000" cx="53" cy="25" rx="4" ry="3"/>
		<ellipse fill="#000000" cx="65" cy="28" rx="5" ry="4"/>
		<ellipse fill="#000000" cx="57" cy="31" rx="4" ry="3"/>
		<ellipse fill="#000000" cx="61" cy="40" rx="4" ry="3"/>
	</g>
	<g id="sdc-logo" transform="translate(25, 100)">
		<path d="m 99.736673,110.05058 10.393667,19.78893 M 121.84503,28.901942 83.315538,55.234246 m -31.961294,0.01283 56.044336,48.605154 M 136.13014,-3.8172053 86.913068,8.652634 M 75.534458,37.77729 87.869343,8.125622 m 1.108812,0.410904 a 1.3268109,1.1929664 0 0 1 -1.178836,1.312596 1.3268109,1.1929664 0 0 1 -1.459838,-1.059914 1.3268109,1.1929664 0 0 1 1.17881,-1.312596 1.3268109,1.1929664 0 0 1 1.459864,1.059914 z m 118.488995,72.6917 -11.51801,-35.909077 m 11.51801,35.909077 -38.20923,40.403794 m 38.20923,-40.403804 -22.6437,-19.28272 M 49.33681,54.569226 67.377282,101.68962 M 49.764663,54.092832 76.289497,36.449093 m -23.096335,17.96856 a 3.1301698,2.8144087 0 0 1 -2.781066,3.096654 3.1301698,2.8144087 0 0 1 -3.444022,-2.500519 3.1301698,2.8144087 0 0 1 2.781021,-3.096647 3.1301698,2.8144087 0 0 1 3.444067,2.500512 z M 210.21282,79.876622 a 3.1301698,2.8144087 0 0 1 -2.78109,3.096662 3.1301698,2.8144087 0 0 1 -3.44411,-2.500533 3.1301698,2.8144087 0 0 1 2.78106,-3.096662 3.1301698,2.8144087 0 0 1 3.44414,2.500533 z m -29.82913,7.067833 a 3.2633131,3.1472678 13.039144 0 1 -2.86455,3.447904 3.2633131,3.1472678 13.039144 0 1 -3.60794,-2.828096 3.2633131,3.1472678 13.039144 0 1 2.86453,-3.447884 3.2633131,3.1472678 13.039144 0 1 3.60796,2.828076 z m -66.52842,42.219505 a 3.2633131,3.1472678 13.039144 0 1 -2.86452,3.44791 3.2633131,3.1472678 13.039144 0 1 -3.60794,-2.82808 3.2633131,3.1472678 13.039144 0 1 2.86451,-3.44792 3.2633131,3.1472678 13.039144 0 1 3.60795,2.82809 z m -4.70162,1.10339 65.78221,-41.569605 m -41.9936,49.306575 a 3.2633131,3.1472678 13.039144 0 1 -2.86455,3.44792 3.2633131,3.1472678 13.039144 0 1 -3.60795,-2.82813 3.2633131,3.1472678 13.039144 0 1 2.86454,-3.44792 3.2633131,3.1472678 13.039144 0 1 3.60796,2.82813 z m -2.40155,1.10081 38.26626,-16.29206 m -40.81356,15.22969 -17.86307,-8.20326 M 185.32828,61.870649 167.47242,123.81177 M 184.77731,63.001081 134.90751,-3.9179846 M 75.312557,37.101097 120.8363,28.563088 M 82.78568,54.849535 67.367537,101.154 m 31.966766,9.58824 -32.571851,-8.91447 m 32.648381,9.56031 9.555907,-7.22887 m 58.45466,19.22201 -58.88253,-18.74562 m 58.88253,18.74562 20.35579,-8.0454 m -2.77567,-53.332759 2.77567,53.332759 m -2.57032,-53.044524 8.29696,-17.173521 M 135.65126,-3.7714911 194.08469,45.933031 m -74.2061,-17.278232 74.2061,17.278232 M 119.87859,28.654799 135.65126,-3.7714911 M 74.552056,37.784238 135.17241,-3.7256348 M 75.297126,36.744114 83.315538,55.234222 m 2.202703,-0.864054 a 2.5328808,2.2773719 0 0 1 -2.250387,2.505748 2.5328808,2.2773719 0 0 1 -2.786852,-2.023377 2.5328808,2.2773719 0 0 1 2.250368,-2.505755 2.5328808,2.2773719 0 0 1 2.786871,2.023384 z M 123.61989,28.514255 a 2.5328808,2.2773719 0 0 1 -2.2504,2.505748 2.5328808,2.2773719 0 0 1 -2.78687,-2.023361 2.5328808,2.2773719 0 0 1 2.25039,-2.505756 2.5328808,2.2773719 0 0 1 2.78688,2.023369 z m 65.13845,33.598641 a 3.5524723,3.1941105 0 0 1 -3.15629,3.514467 3.5524723,3.1941105 0 0 1 -3.90875,-2.837913 3.5524723,3.1941105 0 0 1 3.15629,-3.514405 3.5524723,3.1941105 0 0 1 3.90875,2.837851 z m -77.43589,42.473854 a 2.5328808,2.2773719 0 0 1 -2.2504,2.50578 2.5328808,2.2773719 0 0 1 -2.78689,-2.02338 2.5328808,2.2773719 0 0 1 2.25039,-2.50576 2.5328808,2.2773719 0 0 1 2.7869,2.02336 z m 60.91329,17.48067 a 3.8419923,3.4544251 0 0 1 -3.4135,3.80086 3.8419923,3.4544251 0 0 1 -4.2273,-3.06913 3.8419923,3.4544251 0 0 1 3.41352,-3.80086 3.8419923,3.4544251 0 0 1 4.22728,3.06913 z M 138.38264,-3.706467 a 3.0695077,2.7598659 0 0 1 -2.72717,3.0366384 3.0695077,2.7598659 0 0 1 -3.37735,-2.4520423 3.0695077,2.7598659 0 0 1 2.72716,-3.0366394 3.0695077,2.7598659 0 0 1 3.37736,2.4520433 z M 191.00512,114.5913 a 3.0650395,2.956757 13.190921 0 1 -2.6903,3.23921 3.0650395,2.956757 13.190921 0 1 -3.38874,-2.65707 3.0650395,2.956757 13.190921 0 1 2.6903,-3.23923 3.0650395,2.956757 13.190921 0 1 3.38874,2.65709 z m -88.04144,-3.81398 a 3.7166197,3.3416992 0 0 1 -3.302127,3.67684 3.7166197,3.3416992 0 0 1 -4.08933,-2.96901 3.7166197,3.3416992 0 0 1 3.30211,-3.67682 3.7166197,3.3416992 0 0 1 4.089347,2.96899 z m -32.724044,-9.38707 a 3.2233311,2.8981721 0 0 1 -2.863797,3.18881 3.2233311,2.8981721 0 0 1 -3.546567,-2.57491 3.2233311,2.8981721 0 0 1 2.863817,-3.18882 3.2233311,2.8981721 0 0 1 3.546547,2.57492 z M 198.92001,44.92571 a 4.1059771,4.6848648 88.812244 0 1 -4.17611,4.528148 4.1059771,4.6848648 88.812244 0 1 -5.14319,-3.635722 4.1059771,4.6848648 88.812244 0 1 4.17612,-4.528138 4.1059771,4.6848648 88.812244 0 1 5.14318,3.635712 z M 80.112238,36.593428 a 3.4149118,4.1100384 87.404203 0 1 -3.68694,3.785535 3.4149118,4.1100384 87.404203 0 1 -4.491025,-3.002388 3.4149118,4.1100384 87.404203 0 1 3.686962,-3.78555 3.4149118,4.1100384 87.404203 0 1 4.491003,3.002403 z" style="fill:#000000;fill-opacity:1;fill-rule:evenodd;stroke:#000000;stroke-width:1.27856314;stroke-linecap:butt;stroke-linejoin:miter;stroke-miterlimit:4;stroke-dasharray:none;stroke-opacity:1" id="path4277"/>
		<text xml:space="preserve" style="font-style:normal;font-weight:normal;font-size:55.8391571px;line-height:125%;font-family:sans-serif;letter-spacing:0px;word-spacing:0px;fill:#000000;fill-opacity:1;stroke:none;stroke-width:0.37895501px;stroke-linecap:butt;stroke-linejoin:miter;stroke-opacity:1" x="121.66396" y="79.052086" id="text6035" transform="scale(0.8432917,1.1858293)">
			<tspan id="tspan6037" x="121.66396" y="79.052086" style="font-style:normal;font-variant:normal;font-weight:normal;font-stretch:condensed;font-size:55.8391571px;font-family:'Agency FB';fill:#000000;fill-opacity:1;stroke-width:0.37895501px">SDC</tspan>
		</text>
	</g>
</svg>
